<?xml version="1.0" encoding="UTF-8"?>
<!DOCTYPE svg PUBLIC "-//W3C//DTD SVG 1.1//EN" "http://www.w3.org/Graphics/SVG/1.1/DTD/svg11.dtd">
<svg xmlns="http://www.w3.org/2000/svg" version="1.1" width="120px" height="166px" style="shape-rendering:geometricPrecision; text-rendering:geometricPrecision; image-rendering:optimizeQuality; fill-rule:evenodd; clip-rule:evenodd" xmlns:xlink="http://www.w3.org/1999/xlink">
<g><path style="opacity:1" fill="#eef1f1" d="M -0.5,-0.5 C 39.5,-0.5 79.5,-0.5 119.5,-0.5C 119.5,0.166667 119.5,0.833333 119.5,1.5C 116.52,1.24109 114.687,2.57442 114,5.5C 113.329,6.25244 112.496,6.58577 111.5,6.5C 111.833,5.83333 112.167,5.16667 112.5,4.5C 113.404,3.79105 113.737,2.79105 113.5,1.5C 100.989,1.17145 88.6554,1.50478 76.5,2.5C 76.5,3.16667 76.1667,3.5 75.5,3.5C 64.2146,1.52156 52.5479,0.854894 40.5,1.5C 40.5,2.5 40.5,3.5 40.5,4.5C 39.5,4.16667 38.8333,3.5 38.5,2.5C 26.3446,1.50478 14.0113,1.17145 1.5,1.5C 1.26269,2.79105 1.59603,3.79105 2.5,4.5C 2.83333,5.16667 3.16667,5.83333 3.5,6.5C 2.5041,6.58577 1.67076,6.25244 1,5.5C 0.78997,3.94186 0.28997,2.60853 -0.5,1.5C -0.5,0.833333 -0.5,0.166667 -0.5,-0.5 Z"/></g>
<g><path style="opacity:1" fill="#fdfefd" d="M -0.5,1.5 C 0.28997,2.60853 0.78997,3.94186 1,5.5C 1.67076,6.25244 2.5041,6.58577 3.5,6.5C 5.15629,8.46018 6.82296,10.4602 8.5,12.5C 8.42702,14.0269 9.09368,15.0269 10.5,15.5C 12.9748,17.7703 14.9748,20.437 16.5,23.5C 16.7376,25.4044 17.7376,26.7377 19.5,27.5C 19.427,29.0269 20.0937,30.0269 21.5,30.5C 22.1667,30.5 22.5,30.8333 22.5,31.5C 22.427,33.0269 23.0937,34.0269 24.5,34.5C 26.4456,35.0347 27.4456,36.368 27.5,38.5C 27.5,40.5 28.5,41.5 30.5,41.5C 33.7467,45.6591 36.7467,49.9924 39.5,54.5C 40.0798,56.7488 41.4131,58.4154 43.5,59.5C 43.8333,60.5 44.5,61.1667 45.5,61.5C 45.2407,63.9893 46.2407,65.656 48.5,66.5C 50.0627,67.9448 51.396,69.6115 52.5,71.5C 52.6775,72.6948 53.0109,73.8615 53.5,75C 52.5705,76.0769 51.9038,77.2436 51.5,78.5C 49.901,78.2322 48.5676,78.5655 47.5,79.5C 46.4324,80.4345 45.099,80.7678 43.5,80.5C 41.1523,80.5923 39.4856,81.5923 38.5,83.5C 38.1667,83.5 37.8333,83.5 37.5,83.5C 34.865,84.4735 32.865,86.1402 31.5,88.5C 28.5,89.5 26.5,91.5 25.5,94.5C 23.5544,95.0347 22.5544,96.368 22.5,98.5C 22.5,98.8333 22.5,99.1667 22.5,99.5C 20.9519,99.8212 20.2852,100.821 20.5,102.5C 19.3882,104.599 18.7215,106.933 18.5,109.5C 17.0092,112.186 16.3425,115.186 16.5,118.5C 16.5046,120.696 16.838,122.696 17.5,124.5C 17.4045,127.692 18.0712,130.692 19.5,133.5C 19.427,135.027 20.0937,136.027 21.5,136.5C 22.1098,137.391 22.4431,138.391 22.5,139.5C 22.427,141.027 23.0937,142.027 24.5,142.5C 29.031,147.773 34.3643,152.106 40.5,155.5C 44.2772,157.201 48.2772,158.534 52.5,159.5C 52.5,159.833 52.5,160.167 52.5,160.5C 34.8333,160.5 17.1667,160.5 -0.5,160.5C -0.5,107.5 -0.5,54.5 -0.5,1.5 Z"/></g>
<g><path style="opacity:1" fill="#75b776" d="M 38.5,2.5 C 26.1201,1.85423 14.1201,2.52089 2.5,4.5C 1.59603,3.79105 1.26269,2.79105 1.5,1.5C 14.0113,1.17145 26.3446,1.50478 38.5,2.5 Z"/></g>
<g><path style="opacity:1" fill="#fafcfa" d="M 75.5,3.5 C 75.0679,4.70951 74.4013,5.70951 73.5,6.5C 72.0937,6.97306 71.427,7.97306 71.5,9.5C 70.0937,9.97306 69.427,10.9731 69.5,12.5C 67.016,14.8003 65.016,17.4669 63.5,20.5C 63.5,21.1667 63.1667,21.5 62.5,21.5C 61.1149,23.8835 59.1149,25.5501 56.5,26.5C 51.1453,19.0993 45.812,11.766 40.5,4.5C 40.5,3.5 40.5,2.5 40.5,1.5C 52.5479,0.854894 64.2146,1.52156 75.5,3.5 Z"/></g>
<g><path style="opacity:1" fill="#68a47d" d="M 76.5,2.5 C 88.6554,1.50478 100.989,1.17145 113.5,1.5C 113.737,2.79105 113.404,3.79105 112.5,4.5C 100.88,2.52089 88.8799,1.85423 76.5,2.5 Z"/></g>
<g><path style="opacity:1" fill="#fdfefd" d="M 119.5,1.5 C 119.5,54.5 119.5,107.5 119.5,160.5C 100.833,160.5 82.1667,160.5 63.5,160.5C 65.9752,159.869 68.3085,158.869 70.5,157.5C 73.1048,157.379 75.1048,156.379 76.5,154.5C 78.3797,154.771 79.713,154.104 80.5,152.5C 83.8076,149.529 87.141,146.529 90.5,143.5C 92.8796,141.418 94.5462,138.751 95.5,135.5C 95.4326,134.041 95.7659,132.708 96.5,131.5C 97.4972,131.53 98.1639,131.03 98.5,130C 99.7235,126.606 100.39,123.106 100.5,119.5C 100.444,117.36 99.7773,115.694 98.5,114.5C 98.7062,111.505 98.0395,108.838 96.5,106.5C 95.3282,102.342 93.3282,98.6751 90.5,95.5C 89.9202,93.2512 88.5869,91.5846 86.5,90.5C 84.1401,88.1468 81.4735,86.1468 78.5,84.5C 76.7576,82.231 74.4243,80.8976 71.5,80.5C 69.7085,80.634 68.0418,80.3007 66.5,79.5C 64.3926,78.5318 62.0593,78.1984 59.5,78.5C 59.5,77.5 59.5,76.5 59.5,75.5C 61.5293,73.1415 63.5293,70.8082 65.5,68.5C 68.9736,65.3687 71.6403,61.702 73.5,57.5C 73.3284,56.5084 73.6618,55.8417 74.5,55.5C 75.9744,54.5637 76.9744,53.2303 77.5,51.5C 77.8333,50.5 78.5,49.8333 79.5,49.5C 81.4656,47.5803 83.4656,45.5803 85.5,43.5C 86.562,41.9783 87.2287,40.3117 87.5,38.5C 89.8394,36.8272 91.8394,34.8272 93.5,32.5C 94.562,30.9783 95.2287,29.3117 95.5,27.5C 97.5311,26.4613 98.8645,24.7946 99.5,22.5C 101.587,21.4154 102.92,19.7488 103.5,17.5C 106.934,16.0234 108.934,13.3567 109.5,9.5C 110.906,9.02694 111.573,8.02694 111.5,6.5C 112.496,6.58577 113.329,6.25244 114,5.5C 114.687,2.57442 116.52,1.24109 119.5,1.5 Z"/></g>
<g><path style="opacity:1" fill="#259124" d="M 38.5,2.5 C 38.8333,3.5 39.5,4.16667 40.5,4.5C 45.812,11.766 51.1453,19.0993 56.5,26.5C 56.5,27.1667 56.8333,27.5 57.5,27.5C 63.1153,35.7829 69.1153,43.7829 75.5,51.5C 75.1667,52.8333 74.8333,54.1667 74.5,55.5C 73.6618,55.8417 73.3284,56.5084 73.5,57.5C 70.0669,60.6012 67.4002,64.2679 65.5,68.5C 63.5293,70.8082 61.5293,73.1415 59.5,75.5C 58.609,76.1098 57.609,76.4431 56.5,76.5C 55.396,74.6115 54.0627,72.9448 52.5,71.5C 51.396,69.6115 50.0627,67.9448 48.5,66.5C 47.8897,64.5659 46.8897,62.8993 45.5,61.5C 44.5,61.1667 43.8333,60.5 43.5,59.5C 42.9202,57.2512 41.5869,55.5846 39.5,54.5C 36.7467,49.9924 33.7467,45.6591 30.5,41.5C 29.8333,40.1667 28.8333,39.1667 27.5,38.5C 27.4456,36.368 26.4456,35.0347 24.5,34.5C 24.573,32.9731 23.9063,31.9731 22.5,31.5C 22.5,30.8333 22.1667,30.5 21.5,30.5C 21.573,28.9731 20.9063,27.9731 19.5,27.5C 19.2624,25.5956 18.2624,24.2623 16.5,23.5C 14.9748,20.437 12.9748,17.7703 10.5,15.5C 10.573,13.9731 9.90632,12.9731 8.5,12.5C 6.82296,10.4602 5.15629,8.46018 3.5,6.5C 3.16667,5.83333 2.83333,5.16667 2.5,4.5C 14.1201,2.52089 26.1201,1.85423 38.5,2.5 Z"/></g>
<g><path style="opacity:1" fill="#0f7634" d="M 76.5,2.5 C 88.8799,1.85423 100.88,2.52089 112.5,4.5C 112.167,5.16667 111.833,5.83333 111.5,6.5C 110.094,6.97306 109.427,7.97306 109.5,9.5C 107.147,11.8599 105.147,14.5265 103.5,17.5C 101.413,18.5846 100.08,20.2512 99.5,22.5C 97.457,23.5794 96.1237,25.246 95.5,27.5C 92.1021,30.6267 89.4354,34.2934 87.5,38.5C 84.8333,41.5 82.1667,44.5 79.5,47.5C 73.9588,39.9423 67.9588,32.609 61.5,25.5C 62.2341,24.2921 62.5674,22.9587 62.5,21.5C 63.1667,21.5 63.5,21.1667 63.5,20.5C 66.4707,18.5574 68.4707,15.8908 69.5,12.5C 70.9063,12.0269 71.573,11.0269 71.5,9.5C 72.9063,9.02694 73.573,8.02694 73.5,6.5C 74.4013,5.70951 75.0679,4.70951 75.5,3.5C 76.1667,3.5 76.5,3.16667 76.5,2.5 Z"/></g>
<g><path style="opacity:1" fill="#93bea1" d="M 73.5,6.5 C 73.573,8.02694 72.9063,9.02694 71.5,9.5C 71.427,7.97306 72.0937,6.97306 73.5,6.5 Z"/></g>
<g><path style="opacity:1" fill="#9dc6ab" d="M 111.5,6.5 C 111.573,8.02694 110.906,9.02694 109.5,9.5C 109.427,7.97306 110.094,6.97306 111.5,6.5 Z"/></g>
<g><path style="opacity:1" fill="#80b794" d="M 71.5,9.5 C 71.573,11.0269 70.9063,12.0269 69.5,12.5C 69.427,10.9731 70.0937,9.97306 71.5,9.5 Z"/></g>
<g><path style="opacity:1" fill="#9ccb9c" d="M 8.5,12.5 C 9.90632,12.9731 10.573,13.9731 10.5,15.5C 9.09368,15.0269 8.42702,14.0269 8.5,12.5 Z"/></g>
<g><path style="opacity:1" fill="#cfe2d5" d="M 109.5,9.5 C 108.934,13.3567 106.934,16.0234 103.5,17.5C 105.147,14.5265 107.147,11.8599 109.5,9.5 Z"/></g>
<g><path style="opacity:1" fill="#79af8b" d="M 69.5,12.5 C 68.4707,15.8908 66.4707,18.5574 63.5,20.5C 65.016,17.4669 67.016,14.8003 69.5,12.5 Z"/></g>
<g><path style="opacity:1" fill="#a3c8af" d="M 103.5,17.5 C 102.92,19.7488 101.587,21.4154 99.5,22.5C 100.08,20.2512 101.413,18.5846 103.5,17.5 Z"/></g>
<g><path style="opacity:1" fill="#add4ac" d="M 16.5,23.5 C 18.2624,24.2623 19.2624,25.5956 19.5,27.5C 17.7376,26.7377 16.7376,25.4044 16.5,23.5 Z"/></g>
<g><path style="opacity:1" fill="#9fc6ac" d="M 99.5,22.5 C 98.8645,24.7946 97.5311,26.4613 95.5,27.5C 96.1237,25.246 97.457,23.5794 99.5,22.5 Z"/></g>
<g><path style="opacity:1" fill="#699c73" d="M 62.5,21.5 C 62.5674,22.9587 62.2341,24.2921 61.5,25.5C 60.3951,26.6005 59.0618,27.2671 57.5,27.5C 56.8333,27.5 56.5,27.1667 56.5,26.5C 59.1149,25.5501 61.1149,23.8835 62.5,21.5 Z"/></g>
<g><path style="opacity:1" fill="#a9d6ac" d="M 19.5,27.5 C 20.9063,27.9731 21.573,28.9731 21.5,30.5C 20.0937,30.0269 19.427,29.0269 19.5,27.5 Z"/></g>
<g><path style="opacity:1" fill="#b5d3bf" d="M 95.5,27.5 C 95.2287,29.3117 94.562,30.9783 93.5,32.5C 91.8394,34.8272 89.8394,36.8272 87.5,38.5C 89.4354,34.2934 92.1021,30.6267 95.5,27.5 Z"/></g>
<g><path style="opacity:1" fill="#b2d7b3" d="M 22.5,31.5 C 23.9063,31.9731 24.573,32.9731 24.5,34.5C 23.0937,34.0269 22.427,33.0269 22.5,31.5 Z"/></g>
<g><path style="opacity:1" fill="#b0d6b1" d="M 27.5,38.5 C 28.8333,39.1667 29.8333,40.1667 30.5,41.5C 28.5,41.5 27.5,40.5 27.5,38.5 Z"/></g>
<g><path style="opacity:1" fill="#0c591d" d="M 61.5,25.5 C 67.9588,32.609 73.9588,39.9423 79.5,47.5C 79.5,48.1667 79.5,48.8333 79.5,49.5C 78.5,49.8333 77.8333,50.5 77.5,51.5C 76.8333,51.5 76.1667,51.5 75.5,51.5C 69.1153,43.7829 63.1153,35.7829 57.5,27.5C 59.0618,27.2671 60.3951,26.6005 61.5,25.5 Z"/></g>
<g><path style="opacity:1" fill="#bfd8c7" d="M 87.5,38.5 C 87.2287,40.3117 86.562,41.9783 85.5,43.5C 83.4656,45.5803 81.4656,47.5803 79.5,49.5C 79.5,48.8333 79.5,48.1667 79.5,47.5C 82.1667,44.5 84.8333,41.5 87.5,38.5 Z"/></g>
<g><path style="opacity:1" fill="#80ba80" d="M 75.5,51.5 C 76.1667,51.5 76.8333,51.5 77.5,51.5C 76.9744,53.2303 75.9744,54.5637 74.5,55.5C 74.8333,54.1667 75.1667,52.8333 75.5,51.5 Z"/></g>
<g><path style="opacity:1" fill="#a6d1a6" d="M 39.5,54.5 C 41.5869,55.5846 42.9202,57.2512 43.5,59.5C 41.4131,58.4154 40.0798,56.7488 39.5,54.5 Z"/></g>
<g><path style="opacity:1" fill="#cae4ca" d="M 73.5,57.5 C 71.6403,61.702 68.9736,65.3687 65.5,68.5C 67.4002,64.2679 70.0669,60.6012 73.5,57.5 Z"/></g>
<g><path style="opacity:1" fill="#c3dfc2" d="M 45.5,61.5 C 46.8897,62.8993 47.8897,64.5659 48.5,66.5C 46.2407,65.656 45.2407,63.9893 45.5,61.5 Z"/></g>
<g><path style="opacity:1" fill="#d3ebd8" d="M 52.5,71.5 C 54.0627,72.9448 55.396,74.6115 56.5,76.5C 55.4479,78.256 53.7812,78.9227 51.5,78.5C 51.9038,77.2436 52.5705,76.0769 53.5,75C 53.0109,73.8615 52.6775,72.6948 52.5,71.5 Z"/></g>
<g><path style="opacity:1" fill="#6cca89" d="M 59.5,75.5 C 59.5,76.5 59.5,77.5 59.5,78.5C 62.0593,78.1984 64.3926,78.5318 66.5,79.5C 60.1667,79.5 53.8333,79.5 47.5,79.5C 48.5676,78.5655 49.901,78.2322 51.5,78.5C 53.7812,78.9227 55.4479,78.256 56.5,76.5C 57.609,76.4431 58.609,76.1098 59.5,75.5 Z"/></g>
<g><path style="opacity:1" fill="#14b14c" d="M 47.5,79.5 C 53.8333,79.5 60.1667,79.5 66.5,79.5C 68.0418,80.3007 69.7085,80.634 71.5,80.5C 73.4301,82.4499 75.7634,83.7833 78.5,84.5C 81.4735,86.1468 84.1401,88.1468 86.5,90.5C 87.0798,92.7488 88.4131,94.4154 90.5,95.5C 93.3282,98.6751 95.3282,102.342 96.5,106.5C 97.2897,113.471 97.6231,120.471 97.5,127.5C 96.5655,128.568 96.2322,129.901 96.5,131.5C 95.7659,132.708 95.4326,134.041 95.5,135.5C 93.1204,137.582 91.4538,140.249 90.5,143.5C 87.141,146.529 83.8076,149.529 80.5,152.5C 78.847,152.66 77.5137,153.326 76.5,154.5C 74.1133,154.912 72.1133,155.912 70.5,157.5C 67.8333,157.833 65.1667,158.167 62.5,158.5C 54.9775,158.767 47.6441,157.767 40.5,155.5C 34.3643,152.106 29.031,147.773 24.5,142.5C 24.573,140.973 23.9063,139.973 22.5,139.5C 22.4431,138.391 22.1098,137.391 21.5,136.5C 21.573,134.973 20.9063,133.973 19.5,133.5C 18.0712,130.692 17.4045,127.692 17.5,124.5C 17.6133,119.482 17.9466,114.482 18.5,109.5C 18.7215,106.933 19.3882,104.599 20.5,102.5C 21.4013,101.71 22.0679,100.71 22.5,99.5C 22.5,99.1667 22.5,98.8333 22.5,98.5C 23.9744,97.5637 24.9744,96.2303 25.5,94.5C 27.8333,92.8333 29.8333,90.8333 31.5,88.5C 34.1092,87.5569 36.1092,85.8903 37.5,83.5C 37.8333,83.5 38.1667,83.5 38.5,83.5C 40.5652,83.047 42.2318,82.047 43.5,80.5C 45.099,80.7678 46.4324,80.4345 47.5,79.5 Z"/></g>
<g><path style="opacity:1" fill="#94d8ab" d="M 43.5,80.5 C 42.2318,82.047 40.5652,83.047 38.5,83.5C 39.4856,81.5923 41.1523,80.5923 43.5,80.5 Z"/></g>
<g><path style="opacity:1" fill="#61c882" d="M 71.5,80.5 C 74.4243,80.8976 76.7576,82.231 78.5,84.5C 75.7634,83.7833 73.4301,82.4499 71.5,80.5 Z"/></g>
<g><path style="opacity:1" fill="#7dd29a" d="M 37.5,83.5 C 36.1092,85.8903 34.1092,87.5569 31.5,88.5C 32.865,86.1402 34.865,84.4735 37.5,83.5 Z"/></g>
<g><path style="opacity:1" fill="#57c67d" d="M 86.5,90.5 C 88.5869,91.5846 89.9202,93.2512 90.5,95.5C 88.4131,94.4154 87.0798,92.7488 86.5,90.5 Z"/></g>
<g><path style="opacity:1" fill="#82d49e" d="M 31.5,88.5 C 29.8333,90.8333 27.8333,92.8333 25.5,94.5C 26.5,91.5 28.5,89.5 31.5,88.5 Z"/></g>
<g><path style="opacity:1" fill="#97dcaf" d="M 25.5,94.5 C 24.9744,96.2303 23.9744,97.5637 22.5,98.5C 22.5544,96.368 23.5544,95.0347 25.5,94.5 Z"/></g>
<g><path style="opacity:1" fill="#f6fbf8" d="M 69.5,105.5 C 69.335,108.85 69.5017,112.183 70,115.5C 70.6708,116.252 71.5041,116.586 72.5,116.5C 72.8417,117.338 73.5084,117.672 74.5,117.5C 75.418,123.775 75.7513,130.108 75.5,136.5C 75.0472,137.458 74.3805,138.292 73.5,139C 62.8333,139.667 52.1667,139.667 41.5,139C 40.7476,138.329 40.4142,137.496 40.5,136.5C 40.1712,130.794 40.5046,125.128 41.5,119.5C 42.8066,118.184 44.3066,117.184 46,116.5C 46.4974,113.854 46.6641,111.187 46.5,108.5C 46.5,107.167 46.5,105.833 46.5,104.5C 49.7751,98.5324 54.7751,96.3657 61.5,98C 63.5268,99.8793 65.8602,101.046 68.5,101.5C 68.4326,102.959 68.7659,104.292 69.5,105.5 Z"/></g>
<g><path style="opacity:1" fill="#98dab0" d="M 22.5,99.5 C 22.0679,100.71 21.4013,101.71 20.5,102.5C 20.2852,100.821 20.9519,99.8212 22.5,99.5 Z"/></g>
<g><path style="opacity:1" fill="#8bd5a4" d="M 61.5,104.5 C 59.1667,104.5 56.8333,104.5 54.5,104.5C 56.6555,102.04 58.9889,102.04 61.5,104.5 Z"/></g>
<g><path style="opacity:1" fill="#1eb351" d="M 54.5,104.5 C 56.8333,104.5 59.1667,104.5 61.5,104.5C 62.1174,104.611 62.6174,104.944 63,105.5C 63.4983,108.817 63.665,112.15 63.5,115.5C 59.5,115.5 55.5,115.5 51.5,115.5C 51.2641,112.391 51.5975,109.391 52.5,106.5C 52.8333,105.5 53.5,104.833 54.5,104.5 Z"/></g>
<g><path style="opacity:1" fill="#71cf91" d="M 46.5,104.5 C 46.5,105.833 46.5,107.167 46.5,108.5C 45.8333,110.833 45.1667,113.167 44.5,115.5C 44.3354,112.482 44.502,109.482 45,106.5C 45.2784,105.584 45.7784,104.918 46.5,104.5 Z"/></g>
<g><path style="opacity:1" fill="#b9e7c9" d="M 52.5,106.5 C 51.5975,109.391 51.2641,112.391 51.5,115.5C 50.8418,114.207 50.5085,112.707 50.5,111C 50.5687,109.014 51.2353,107.514 52.5,106.5 Z"/></g>
<g><path style="opacity:1" fill="#81d29c" d="M 69.5,105.5 C 70.8134,108.998 71.8134,112.664 72.5,116.5C 71.5041,116.586 70.6708,116.252 70,115.5C 69.5017,112.183 69.335,108.85 69.5,105.5 Z"/></g>
<g><path style="opacity:1" fill="#5fca86" d="M 96.5,106.5 C 98.0395,108.838 98.7062,111.505 98.5,114.5C 98.8182,119.032 98.4849,123.366 97.5,127.5C 97.6231,120.471 97.2897,113.471 96.5,106.5 Z"/></g>
<g><path style="opacity:1" fill="#7cd29a" d="M 18.5,109.5 C 17.9466,114.482 17.6133,119.482 17.5,124.5C 16.838,122.696 16.5046,120.696 16.5,118.5C 16.3425,115.186 17.0092,112.186 18.5,109.5 Z"/></g>
<g><path style="opacity:1" fill="#b0e5c2" d="M 46.5,108.5 C 46.6641,111.187 46.4974,113.854 46,116.5C 44.3066,117.184 42.8066,118.184 41.5,119.5C 40.5046,125.128 40.1712,130.794 40.5,136.5C 39.1826,130.322 39.1826,123.988 40.5,117.5C 41.6223,116.37 42.9557,115.703 44.5,115.5C 45.1667,113.167 45.8333,110.833 46.5,108.5 Z"/></g>
<g><path style="opacity:1" fill="#70cb8c" d="M 74.5,117.5 C 75.1174,117.611 75.6174,117.944 76,118.5C 76.8192,124.681 76.6525,130.681 75.5,136.5C 75.7513,130.108 75.418,123.775 74.5,117.5 Z"/></g>
<g><path style="opacity:1" fill="#76cf94" d="M 59.5,120.5 C 60.4872,125.305 60.8205,130.305 60.5,135.5C 58.8561,135.714 57.3561,135.38 56,134.5C 55.834,130.669 55.0007,127.003 53.5,123.5C 53.7472,122.287 54.4138,121.62 55.5,121.5C 54.0857,123.598 54.7524,124.598 57.5,124.5C 57.1826,127.572 57.5159,130.572 58.5,133.5C 59.4922,129.217 59.8256,124.884 59.5,120.5 Z"/></g>
<g><path style="opacity:1" fill="#1fb453" d="M 59.5,120.5 C 59.8256,124.884 59.4922,129.217 58.5,133.5C 57.5159,130.572 57.1826,127.572 57.5,124.5C 54.7524,124.598 54.0857,123.598 55.5,121.5C 56.7079,120.766 58.0413,120.433 59.5,120.5 Z"/></g>
<g><path style="opacity:1" fill="#cfeeda" d="M 98.5,114.5 C 99.7773,115.694 100.444,117.36 100.5,119.5C 100.39,123.106 99.7235,126.606 98.5,130C 98.1639,131.03 97.4972,131.53 96.5,131.5C 96.2322,129.901 96.5655,128.568 97.5,127.5C 98.4849,123.366 98.8182,119.032 98.5,114.5 Z"/></g>
<g><path style="opacity:1" fill="#8cd6a3" d="M 19.5,133.5 C 20.9063,133.973 21.573,134.973 21.5,136.5C 20.0937,136.027 19.427,135.027 19.5,133.5 Z"/></g>
<g><path style="opacity:1" fill="#bce6c9" d="M 95.5,135.5 C 94.5462,138.751 92.8796,141.418 90.5,143.5C 91.4538,140.249 93.1204,137.582 95.5,135.5 Z"/></g>
<g><path style="opacity:1" fill="#b1e4c3" d="M 22.5,139.5 C 23.9063,139.973 24.573,140.973 24.5,142.5C 23.0937,142.027 22.427,141.027 22.5,139.5 Z"/></g>
<g><path style="opacity:1" fill="#93dbad" d="M 80.5,152.5 C 79.713,154.104 78.3797,154.771 76.5,154.5C 77.5137,153.326 78.847,152.66 80.5,152.5 Z"/></g>
<g><path style="opacity:1" fill="#66ca87" d="M 40.5,155.5 C 47.6441,157.767 54.9775,158.767 62.5,158.5C 59.3752,159.479 56.0419,159.813 52.5,159.5C 48.2772,158.534 44.2772,157.201 40.5,155.5 Z"/></g>
<g><path style="opacity:1" fill="#9cdbb0" d="M 76.5,154.5 C 75.1048,156.379 73.1048,157.379 70.5,157.5C 72.1133,155.912 74.1133,154.912 76.5,154.5 Z"/></g>
<g><path style="opacity:1" fill="#d2ecd8" d="M 70.5,157.5 C 68.3085,158.869 65.9752,159.869 63.5,160.5C 59.8333,160.5 56.1667,160.5 52.5,160.5C 52.5,160.167 52.5,159.833 52.5,159.5C 56.0419,159.813 59.3752,159.479 62.5,158.5C 65.1667,158.167 67.8333,157.833 70.5,157.5 Z"/></g>
<g><path style="opacity:1" fill="#f0f3f3" d="M -0.5,160.5 C 17.1667,160.5 34.8333,160.5 52.5,160.5C 56.1667,160.5 59.8333,160.5 63.5,160.5C 82.1667,160.5 100.833,160.5 119.5,160.5C 119.5,162.167 119.5,163.833 119.5,165.5C 79.5,165.5 39.5,165.5 -0.5,165.5C -0.5,163.833 -0.5,162.167 -0.5,160.5 Z"/></g>
</svg>
